<svg id="wave" style="transform:rotate(180deg); transition: 0.3s" viewBox="0 0 1440 380" version="1.1" xmlns="http://www.w3.org/2000/svg"><defs><linearGradient id="sw-gradient-0" x1="0" x2="0" y1="1" y2="0"><stop stop-color="rgba(243, 106, 62, 1)" offset="0%"></stop><stop stop-color="rgba(255, 179, 11, 1)" offset="100%"></stop></linearGradient></defs><path style="transform:translate(0, 0px); opacity:1" fill="url(#sw-gradient-0)" d="M0,38L20,44.3C40,51,80,63,120,69.7C160,76,200,76,240,120.3C280,165,320,253,360,297.7C400,342,440,342,480,285C520,228,560,114,600,101.3C640,89,680,177,720,209C760,241,800,215,840,202.7C880,190,920,190,960,196.3C1000,203,1040,215,1080,196.3C1120,177,1160,127,1200,139.3C1240,152,1280,228,1320,240.7C1360,253,1400,203,1440,177.3C1480,152,1520,152,1560,164.7C1600,177,1640,203,1680,183.7C1720,165,1760,101,1800,82.3C1840,63,1880,89,1920,101.3C1960,114,2000,114,2040,145.7C2080,177,2120,241,2160,234.3C2200,228,2240,152,2280,114C2320,76,2360,76,2400,114C2440,152,2480,228,2520,253.3C2560,279,2600,253,2640,228C2680,203,2720,177,2760,139.3C2800,101,2840,51,2860,25.3L2880,0L2880,380L2860,380C2840,380,2800,380,2760,380C2720,380,2680,380,2640,380C2600,380,2560,380,2520,380C2480,380,2440,380,2400,380C2360,380,2320,380,2280,380C2240,380,2200,380,2160,380C2120,380,2080,380,2040,380C2000,380,1960,380,1920,380C1880,380,1840,380,1800,380C1760,380,1720,380,1680,380C1640,380,1600,380,1560,380C1520,380,1480,380,1440,380C1400,380,1360,380,1320,380C1280,380,1240,380,1200,380C1160,380,1120,380,1080,380C1040,380,1000,380,960,380C920,380,880,380,840,380C800,380,760,380,720,380C680,380,640,380,600,380C560,380,520,380,480,380C440,380,400,380,360,380C320,380,280,380,240,380C200,380,160,380,120,380C80,380,40,380,20,380L0,380Z"></path><defs><linearGradient id="sw-gradient-1" x1="0" x2="0" y1="1" y2="0"><stop stop-color="rgba(243, 106, 62, 1)" offset="0%"></stop><stop stop-color="rgba(255, 179, 11, 1)" offset="100%"></stop></linearGradient></defs><path style="transform:translate(0, 50px); opacity:0.9" fill="url(#sw-gradient-1)" d="M0,190L20,164.7C40,139,80,89,120,69.7C160,51,200,63,240,63.3C280,63,320,51,360,38C400,25,440,13,480,44.3C520,76,560,152,600,158.3C640,165,680,101,720,101.3C760,101,800,165,840,171C880,177,920,127,960,101.3C1000,76,1040,76,1080,107.7C1120,139,1160,203,1200,202.7C1240,203,1280,139,1320,114C1360,89,1400,101,1440,126.7C1480,152,1520,190,1560,215.3C1600,241,1640,253,1680,221.7C1720,190,1760,114,1800,120.3C1840,127,1880,215,1920,247C1960,279,2000,253,2040,228C2080,203,2120,177,2160,183.7C2200,190,2240,228,2280,202.7C2320,177,2360,89,2400,63.3C2440,38,2480,76,2520,114C2560,152,2600,190,2640,171C2680,152,2720,76,2760,38C2800,0,2840,0,2860,0L2880,0L2880,380L2860,380C2840,380,2800,380,2760,380C2720,380,2680,380,2640,380C2600,380,2560,380,2520,380C2480,380,2440,380,2400,380C2360,380,2320,380,2280,380C2240,380,2200,380,2160,380C2120,380,2080,380,2040,380C2000,380,1960,380,1920,380C1880,380,1840,380,1800,380C1760,380,1720,380,1680,380C1640,380,1600,380,1560,380C1520,380,1480,380,1440,380C1400,380,1360,380,1320,380C1280,380,1240,380,1200,380C1160,380,1120,380,1080,380C1040,380,1000,380,960,380C920,380,880,380,840,380C800,380,760,380,720,380C680,380,640,380,600,380C560,380,520,380,480,380C440,380,400,380,360,380C320,380,280,380,240,380C200,380,160,380,120,380C80,380,40,380,20,380L0,380Z"></path><defs><linearGradient id="sw-gradient-2" x1="0" x2="0" y1="1" y2="0"><stop stop-color="rgba(243, 106, 62, 1)" offset="0%"></stop><stop stop-color="rgba(255, 179, 11, 1)" offset="100%"></stop></linearGradient></defs><path style="transform:translate(0, 100px); opacity:0.8" fill="url(#sw-gradient-2)" d="M0,304L20,266C40,228,80,152,120,152C160,152,200,228,240,247C280,266,320,228,360,221.7C400,215,440,241,480,215.3C520,190,560,114,600,126.7C640,139,680,241,720,234.3C760,228,800,114,840,107.7C880,101,920,203,960,253.3C1000,304,1040,304,1080,278.7C1120,253,1160,203,1200,209C1240,215,1280,279,1320,278.7C1360,279,1400,215,1440,183.7C1480,152,1520,152,1560,152C1600,152,1640,152,1680,139.3C1720,127,1760,101,1800,101.3C1840,101,1880,127,1920,158.3C1960,190,2000,228,2040,259.7C2080,291,2120,317,2160,316.7C2200,317,2240,291,2280,285C2320,279,2360,291,2400,247C2440,203,2480,101,2520,95C2560,89,2600,177,2640,202.7C2680,228,2720,190,2760,158.3C2800,127,2840,101,2860,88.7L2880,76L2880,380L2860,380C2840,380,2800,380,2760,380C2720,380,2680,380,2640,380C2600,380,2560,380,2520,380C2480,380,2440,380,2400,380C2360,380,2320,380,2280,380C2240,380,2200,380,2160,380C2120,380,2080,380,2040,380C2000,380,1960,380,1920,380C1880,380,1840,380,1800,380C1760,380,1720,380,1680,380C1640,380,1600,380,1560,380C1520,380,1480,380,1440,380C1400,380,1360,380,1320,380C1280,380,1240,380,1200,380C1160,380,1120,380,1080,380C1040,380,1000,380,960,380C920,380,880,380,840,380C800,380,760,380,720,380C680,380,640,380,600,380C560,380,520,380,480,380C440,380,400,380,360,380C320,380,280,380,240,380C200,380,160,380,120,380C80,380,40,380,20,380L0,380Z"></path></svg>